<?xml version="1.0" standalone="no"?>
<!DOCTYPE svg PUBLIC "-//W3C//DTD SVG 20010904//EN"
 "http://www.w3.org/TR/2001/REC-SVG-20010904/DTD/svg10.dtd">
<svg version="1.0" xmlns="http://www.w3.org/2000/svg"
 width="1472.000000pt" height="704.000000pt" viewBox="0 0 1472.000000 704.000000"
 preserveAspectRatio="xMidYMid meet">

<g transform="translate(0.000000,704.000000) scale(0.100000,-0.100000)"
fill="#000000" stroke="none">
<path d="M8870 6806 c-89 -25 -125 -49 -215 -145 -237 -253 -307 -311 -459
-381 -164 -76 -151 -75 -793 -71 l-573 3 0 -135 0 -134 583 -7 c567 -7 585 -7
684 13 57 12 142 38 190 59 153 67 224 120 415 312 98 98 193 185 211 194 74
34 163 37 1063 30 527 -4 883 -4 885 2 3 5 3 69 1 142 l-4 132 -971 -1 c-742
-1 -983 -4 -1017 -13z"/>
<path d="M6920 5605 l0 -175 420 0 420 0 0 175 0 175 -420 0 -420 0 0 -175z"/>
<path d="M6130 5050 l0 -210 113 59 c245 130 491 206 792 246 127 17 428 19
560 5 292 -33 587 -122 844 -256 58 -30 106 -54 108 -54 2 0 3 95 3 210 l0
210 -1210 0 -1210 0 0 -210z"/>
<path d="M7025 4815 c-632 -102 -1154 -468 -1454 -1020 -140 -257 -214 -521
-236 -833 l-8 -102 414 2 414 3 2 45 c26 478 348 895 808 1044 179 59 404 71
590 31 393 -83 736 -388 859 -765 30 -90 56 -225 56 -289 0 -25 4 -52 8 -59 7
-9 96 -12 413 -10 l404 3 -3 75 c-15 412 -167 822 -422 1141 -75 94 -234 252
-325 324 -249 195 -527 325 -838 391 -108 23 -150 27 -357 30 -172 2 -259 -1
-325 -11z m415 -200 c69 -35 111 -104 112 -180 1 -107 -78 -192 -188 -202 -77
-6 -135 23 -181 91 -56 82 -43 185 29 254 61 58 157 73 228 37z m-887 -305
c58 -40 87 -94 87 -162 0 -201 -238 -283 -364 -125 -25 31 -31 49 -34 101 -5
71 15 121 65 167 47 44 64 50 139 47 56 -3 78 -8 107 -28z m1860 -83 c45 -19
104 -88 117 -138 22 -81 -14 -170 -90 -220 -41 -28 -51 -30 -117 -27 -62 3
-77 7 -110 34 -21 16 -48 50 -61 75 -48 92 -10 213 83 266 46 26 128 31 178
10z m-2488 -726 c149 -67 162 -263 25 -356 -94 -63 -233 -27 -287 74 -90 171
87 362 262 282z m2975 -2 c57 -25 77 -44 102 -93 69 -135 -32 -296 -188 -296
-48 0 -128 46 -160 92 -25 36 -29 50 -29 113 0 62 4 77 27 111 59 84 158 114
248 73z"/>
<path d="M1387 3046 c-20 -8 -44 -19 -53 -26 -8 -7 -102 -124 -208 -259 -611
-781 -602 -768 -661 -909 -120 -286 -112 -617 20 -897 52 -109 108 -188 201
-285 158 -164 336 -264 574 -322 36 -8 117 -13 235 -12 163 0 190 3 280 27
188 51 375 158 505 291 95 97 143 163 201 278 119 236 149 508 85 763 -31 122
-114 294 -188 386 -69 86 -817 908 -858 942 -17 15 -37 27 -43 27 -7 0 -21 2
-32 5 -11 3 -37 -2 -58 -9z m203 -1126 c165 -31 325 -168 382 -328 30 -80 36
-221 13 -298 -26 -90 -74 -173 -136 -234 -253 -250 -663 -176 -821 147 l-43
88 0 120 c0 142 17 198 90 300 117 164 315 243 515 205z"/>
<path d="M2825 2468 c-3 -7 -4 -476 -3 -1043 l3 -1030 298 -3 297 -2 0 1045 0
1045 -295 0 c-227 0 -297 -3 -300 -12z"/>
<path d="M3735 2468 c-3 -7 -4 -476 -3 -1043 l3 -1030 645 0 645 0 3 288 2
287 -350 0 -350 0 0 755 0 755 -295 0 c-227 0 -297 -3 -300 -12z"/>
<path d="M5196 2472 c-4 -6 -2 -1991 3 -2059 l1 -23 295 0 295 0 2 502 3 503
133 -225 c74 -124 180 -302 235 -397 65 -110 108 -172 118 -173 11 0 55 64
127 187 61 104 167 283 236 398 l126 210 0 -503 0 -502 298 2 297 3 3 1043 2
1042 -299 0 -299 0 -38 -67 c-33 -60 -167 -291 -382 -660 -36 -62 -68 -113
-71 -113 -3 0 -82 134 -176 297 -93 163 -202 351 -240 417 l-70 121 -297 3
c-163 1 -299 -1 -302 -6z"/>
<path d="M7677 2473 c-2 -5 -3 -474 -3 -1043 l1 -1035 690 0 690 0 3 272 2
273 -395 0 -395 0 0 115 0 115 350 0 350 0 0 270 0 270 -350 0 -350 0 0 115 0
115 385 0 384 0 3 263 c2 144 2 265 0 270 -2 4 -309 7 -682 7 -373 0 -681 -3
-683 -7z"/>
<path d="M9180 2195 l0 -285 248 -2 247 -3 3 -758 2 -757 295 0 295 0 1 153
c1 83 3 424 4 757 l2 605 247 3 246 2 0 285 0 285 -795 0 -795 0 0 -285z"/>
<path d="M11248 2368 c-44 -137 -163 -510 -251 -788 -123 -386 -259 -815 -317
-995 -31 -99 -55 -183 -53 -187 2 -5 145 -8 318 -8 l314 0 14 52 c9 29 25 90
37 135 l22 82 292 3 c160 2 296 2 302 0 6 -2 21 -40 33 -85 13 -45 29 -106 37
-135 l15 -52 320 0 c175 0 319 3 319 8 0 4 -11 41 -24 82 -52 164 -98 306
-176 550 -45 140 -92 289 -105 330 -12 41 -73 233 -134 425 -62 193 -137 428
-167 523 l-55 172 -352 0 -353 0 -36 -112z m433 -744 c48 -180 119 -460 119
-472 0 -5 -73 -10 -165 -10 -124 -1 -165 2 -165 11 0 19 163 628 167 624 2 -2
21 -71 44 -153z"/>
<path d="M12780 2283 c0 -109 -1 -544 -3 -968 -2 -424 -1 -805 1 -847 l4 -78
644 0 644 0 0 290 0 290 -350 0 -350 0 0 755 0 755 -295 0 -295 0 0 -197z"/>
</g>
</svg>
